<?xml version="1.0" standalone="no"?>
<!DOCTYPE svg PUBLIC "-//W3C//DTD SVG 20010904//EN"
 "http://www.w3.org/TR/2001/REC-SVG-20010904/DTD/svg10.dtd">
<svg version="1.0" xmlns="http://www.w3.org/2000/svg"
 width="700.000000pt" height="700.000000pt" viewBox="0 0 700.000000 700.000000"
 preserveAspectRatio="xMidYMid meet">
<metadata>
Created by potrace 1.14, written by Peter Selinger 2001-2017
</metadata>
<g transform="translate(0.000000,700.000000) scale(0.100000,-0.100000)"
fill="#000000" stroke="none">
<path d="M4080 5733 c-314 -313 -950 -942 -1523 -1506 -122 -120 -330 -326
-463 -457 l-241 -239 166 -170 c91 -93 321 -326 511 -519 190 -192 595 -602
900 -911 305 -309 650 -659 766 -778 l211 -216 274 271 c151 149 337 332 414
407 77 75 358 352 625 615 267 263 555 546 640 630 85 83 264 259 398 391
l243 240 -245 247 c-134 136 -304 308 -377 382 -72 74 -346 352 -608 618 -262
266 -558 567 -659 670 -429 438 -665 672 -676 670 -6 -1 -166 -156 -356 -345z
m1420 -1403 c267 -271 561 -569 653 -663 l168 -172 -369 -365 c-203 -201 -632
-625 -953 -943 l-584 -577 -195 199 c-107 110 -422 430 -700 711 -278 281
-614 622 -747 758 l-243 247 244 240 c472 464 1589 1570 1625 1608 l36 39 290
-295 c159 -163 508 -517 775 -787z"/>
<path d="M4262 4317 c-89 -89 -162 -166 -162 -170 0 -5 91 -101 203 -213 111
-113 257 -262 325 -332 l124 -127 -316 -312 c-174 -171 -316 -314 -316 -318 0
-4 69 -76 153 -161 83 -85 154 -159 155 -164 11 -31 -6 -46 676 627 l326 322
-128 130 c-373 382 -867 881 -872 881 -3 0 -78 -73 -168 -163z"/>
<path d="M2295 5774 c-159 -157 -537 -530 -840 -829 -302 -298 -624 -616 -715
-705 -91 -89 -294 -290 -452 -447 l-288 -285 269 -272 c149 -149 361 -364 473
-477 112 -114 439 -446 728 -739 289 -292 653 -661 810 -820 l285 -289 288
285 c158 158 287 290 285 295 -2 4 -76 82 -165 174 l-162 166 -123 -121 -123
-120 -288 292 c-1066 1081 -1311 1330 -1446 1468 l-151 155 169 165 c93 91
427 420 742 732 316 311 671 661 788 776 l215 211 129 -135 130 -134 158 157
c87 86 163 160 170 163 6 4 10 12 8 18 -5 15 -588 602 -597 602 -4 0 -137
-129 -297 -286z"/>
</g>
</svg>
