<?xml version="1.0" encoding="UTF-8"?><svg id="uuid-dc7347d1-1e78-4543-a4e2-ec64b6b1e385" xmlns="http://www.w3.org/2000/svg" viewBox="0 0 400 400"><line x1="316.68" y1="209.82" x2="-143.81" y2="301.44" style="fill:none; stroke:#002131; stroke-miterlimit:10;"/><polyline points="157.9 505.04 173.06 154.98 -85.18 201.84" style="fill:none; stroke:#002131; stroke-miterlimit:10;"/><line x1="173.06" y1="154.98" x2="558.08" y2="128.23" style="fill:none; stroke:#002131; stroke-miterlimit:10;"/><line x1="342.23" y1="57.47" x2="281" y2="-106.31" style="fill:none; stroke:#002131; stroke-miterlimit:10;"/><polyline points="620.16 99.78 342.23 57.47 515.83 279.99 316.68 209.82 395.97 475.73" style="fill:none; stroke:#002131; stroke-miterlimit:10;"/><path d="M235.43,309.42l22.59,166.31-22.59-166.31Z" style="fill:none; stroke:#002131; stroke-miterlimit:10;"/><line x1="235.43" y1="309.42" x2="547.73" y2="412.78" style="fill:none; stroke:#002131; stroke-miterlimit:10;"/><polyline points="145.05 -58.88 101.67 49.3 -34.31 -21.81 101.67 49.3 -56.72 179.42" style="fill:none; stroke:#002131; stroke-miterlimit:10;"/><polyline points="-25.68 224.8 73.7 350.4 -56.72 350.4" style="fill:none; stroke:#002131; stroke-miterlimit:10;"/><line x1="73.7" y1="350.4" x2="106.98" y2="452.45" style="fill:none; stroke:#002131; stroke-miterlimit:10;"/><line x1="73.7" y1="350.4" x2="173.06" y2="154.98" style="fill:none; stroke:#002131; stroke-miterlimit:10;"/><polyline points="114.32 54.72 342.23 57.47 240.21 304.13 316.68 209.82" style="fill:none; stroke:#002131; stroke-miterlimit:10;"/><polygon points="109.37 49.6 73.7 350.4 235.43 309.42 173.06 154.98 316.68 209.82 342.23 57.47 173.06 154.98 109.37 49.6" style="fill:none; stroke:#002131; stroke-miterlimit:10;"/><circle cx="109.37" cy="49.6" r="35.68" style="fill:#f2f2f2; stroke:#002131; stroke-miterlimit:10;"/><circle cx="173.06" cy="154.98" r="35.68" style="fill:#f2f2f2; stroke:#002131; stroke-miterlimit:10;"/><circle cx="342.23" cy="57.47" r="35.68" style="fill:#f2f2f2; stroke:#002131; stroke-miterlimit:10;"/><circle cx="73.7" cy="350.4" r="35.68" style="fill:#f2f2f2; stroke:#002131; stroke-miterlimit:10;"/><circle cx="235.43" cy="309.42" r="35.68" style="fill:#f2f2f2; stroke:#002131; stroke-miterlimit:10;"/><circle cx="316.68" cy="209.82" r="35.68" style="fill:#f2f2f2; stroke:#002131; stroke-miterlimit:10;"/><polygon points="101.94 70.17 81.45 49.41 102.17 28.98 106.98 33.85 104.24 36.53 102.17 34.39 86.88 49.47 101.94 64.75 103.91 62.83 106.6 65.58 101.94 70.17 101.94 70.17" style="fill:#002131; stroke-width:0px;"/><polygon points="117 57.47 114.32 54.72 119.42 49.68 114.15 44.32 116.85 41.63 124.85 49.74 117 57.47 117 57.47" style="fill:#ff9500; stroke-width:0px;"/><path d="M101.67,49.3l15.06,15.29,15.23-15.06-15.06-15.29-15.23,15.06h0ZM116.68,69.96l-20.43-20.72,15.56-15.34h0l5.15-5.09,20.43,20.76-20.72,20.38h.01Z" style="fill:#002131; stroke-width:0px;"/><polygon points="165.63 175.55 145.14 154.79 165.86 134.35 170.67 139.23 167.93 141.91 165.86 139.77 150.57 154.84 165.63 170.13 167.6 168.2 170.28 170.95 165.63 175.55 165.63 175.55" style="fill:#002131; stroke-width:0px;"/><polygon points="180.69 162.84 178.01 160.09 183.1 155.06 177.84 149.69 180.53 147 188.53 155.11 180.69 162.84 180.69 162.84" style="fill:#ff9500; stroke-width:0px;"/><path d="M165.36,154.67l15.06,15.29,15.23-15.06-15.06-15.29-15.23,15.06h0ZM180.37,175.33l-20.43-20.72,15.56-15.34h0l5.15-5.09,20.43,20.76-20.72,20.38h.01Z" style="fill:#002131; stroke-width:0px;"/><polygon points="334.8 78.04 314.31 57.27 335.03 36.84 339.84 41.72 337.1 44.4 335.03 42.26 319.74 57.33 334.8 72.62 336.77 70.69 339.46 73.44 334.8 78.04 334.8 78.04" style="fill:#002131; stroke-width:0px;"/><polygon points="349.86 65.33 347.18 62.58 352.27 57.54 347.01 52.18 349.71 49.49 357.7 57.6 349.86 65.33 349.86 65.33" style="fill:#ff9500; stroke-width:0px;"/><path d="M334.53,57.16l15.06,15.29,15.23-15.06-15.06-15.29-15.23,15.06h0ZM349.54,77.82l-20.43-20.72,15.56-15.34h0l5.15-5.09,20.43,20.76-20.72,20.38h.01Z" style="fill:#002131; stroke-width:0px;"/><polygon points="66.27 370.97 45.77 350.21 66.49 329.77 71.3 334.65 68.56 337.33 66.49 335.19 51.2 350.26 66.27 365.55 68.24 363.62 70.92 366.37 66.27 370.97 66.27 370.97" style="fill:#002131; stroke-width:0px;"/><polygon points="81.33 358.26 78.65 355.51 83.74 350.48 78.48 345.11 81.17 342.42 89.17 350.53 81.33 358.26 81.33 358.26" style="fill:#ff9500; stroke-width:0px;"/><path d="M66,350.09l15.06,15.29,15.23-15.06-15.06-15.29-15.23,15.06h0ZM81,370.75l-20.43-20.72,15.56-15.34h0l5.15-5.09,20.43,20.76-20.72,20.38h.01Z" style="fill:#002131; stroke-width:0px;"/><polygon points="228 329.99 207.51 309.22 228.22 288.79 233.03 293.67 230.3 296.35 228.22 294.21 212.94 309.28 228 324.57 229.97 322.64 232.65 325.39 228 329.99 228 329.99" style="fill:#002131; stroke-width:0px;"/><polygon points="243.06 317.28 240.38 314.53 245.47 309.49 240.21 304.13 242.9 301.44 250.9 309.55 243.06 317.28 243.06 317.28" style="fill:#ff9500; stroke-width:0px;"/><path d="M227.73,309.11l15.06,15.29,15.23-15.06-15.06-15.29-15.23,15.06h0ZM242.73,329.77l-20.43-20.72,15.56-15.34h0l5.15-5.09,20.43,20.76-20.72,20.38h.01Z" style="fill:#002131; stroke-width:0px;"/><polygon points="309.25 230.39 288.76 209.63 309.48 189.19 314.29 194.07 311.55 196.75 309.48 194.61 294.19 209.68 309.25 224.97 311.22 223.04 313.9 225.79 309.25 230.39 309.25 230.39" style="fill:#002131; stroke-width:0px;"/><polygon points="324.31 217.68 321.63 214.93 326.72 209.9 321.46 204.54 324.16 201.84 332.15 209.95 324.31 217.68 324.31 217.68" style="fill:#ff9500; stroke-width:0px;"/><path d="M308.98,209.52l15.06,15.29,15.23-15.06-15.06-15.29-15.23,15.06h0ZM323.99,230.18l-20.43-20.72,15.56-15.34h0l5.15-5.09,20.43,20.76-20.72,20.38h.01Z" style="fill:#002131; stroke-width:0px;"/></svg>