<?xml version="1.0" encoding="UTF-8"?><svg id="uuid-9f8e8c65-7304-4777-b00f-ad8499ccc0f6" xmlns="http://www.w3.org/2000/svg" viewBox="0 0 450 308.56"><path d="M271.69,25.55c-1.57-.28-3.2,1.27-2.91,2.87.58,3.19,2.34,6.02,2.98,9.2.66,3.29.03,6.66.62,9.93.38,2.09,2.59,3.04,4.37,1.87,8.13-5.34,4.38-22.19-5.06-23.87Z" style="fill:#fff; stroke-width:0px;"/><path d="M268.69,54.48c-.63.76-1.4,1.36-2.19,1.95-.78.59-1.54,1.26-2.43,1.69-1.81.88-1.3,3.97.92,3.6,1.66-.28,3.24-.85,4.43-2.07,1.11-1.14,1.68-2.47,2.05-3.99.39-1.6-1.88-2.29-2.8-1.18Z" style="fill:#fff; stroke-width:0px;"/><path d="M77.74,49.39c-2.61-.04-4.4-.06-6.3,2.02-1.76,1.92-2.23,4.3-1.95,6.83.18,1.61,2.59,2.48,3.55.98.89-1.39,2.02-2.62,2.97-3.96.52-.74,1.12-1.43,1.43-2.29.28-.76.37-1.49.87-2.17.36-.48.13-1.4-.57-1.41Z" style="fill:#fff; stroke-width:0px;"/><path d="M356.35,122c-.94-2.98-3.36-6.69-6.83-6.83-1.8-.07-3.84,1.3-3.42,3.38.42,2.13,1.93,3.72,2.57,5.77.56,1.79,1.08,3.94,1.25,5.81.21,2.35,3.17,2.85,4.57,1.27,2.46-2.77,2.97-5.88,1.86-9.41Z" style="fill:#fff; stroke-width:0px;"/><path d="M353.93,138.56c-.36-1.78-2.31-2.81-3.89-1.67-.51.37-.91.85-1.25,1.37-.16.26-.31.52-.46.78-.04.06-.05.08-.06.1-.12.19-.25.38-.37.57-.54.86-.79,1.7-1.65,2.46-.76.68-1.1,1.71-.55,2.64.48.83,1.6,1.36,2.54.92,1.38-.65,2.88-1.36,3.92-2.5,1.08-1.19,2.1-3.04,1.77-4.69Z" style="fill:#fff; stroke-width:0px;"/><path d="M342.02,242.03c-4.35,10.06-11.59,18.73-20.81,24.68-9.86,6.36-21.58,9.21-33.26,8.38-6.94-.49-13.78-2.33-20.03-5.4-2.22-1.09-4.11,2.04-1.95,3.34-.14-.09-.33-.26-.39-.41,0,.01.11.16.1.17,0,0-.03-.16.07.21.12.45.22.96.27,1.37.19,1.48.21,3,.21,4.5.01,3.22-.15,6.44-.45,9.64-.55,5.76-3.83,14.16-11.38,13.28-5.76-.67-12.71-1.51-18.46-3.58-2.67-.96-3.66-3.89-4.17-6.61-.72-3.89-.51-7.9-.69-11.83-.19-4.22-1.2-8.31-2.43-12.34-1.44-4.72-3.29-9.34-5.59-13.71-4.38-8.32-10.78-16.4-19.2-20.91-3.79-2.03-7.95-2.95-12.24-2.94-4.85.01-9.67.82-14.53.86-10.45.1-20.96-1.2-31.05-3.93-9.28-2.51-18.56-6.24-25.6-12.99-5.62-5.39-9.23-12.33-10.9-19.91-.41-1.83-.7-3.69-.9-5.56-.26-2.45-4.13-2.48-3.87,0,.87,8.13,3.3,16.11,8.19,22.76,5.77,7.85,13.99,13.04,22.99,16.49,10.23,3.93,21.21,5.98,32.12,6.73,5.28.36,10.59.39,15.86-.01,4.74-.36,9.42-1.1,14.08.25,4.56,1.32,8.53,4.36,11.88,7.63,3.7,3.61,6.72,7.83,9.21,12.35,4.49,8.15,7.91,17.64,8.17,27.01.18,6.64-.5,17.16,7.04,20.16,3.24,1.29,6.81,1.87,10.24,2.47,3.21.56,6.44,1.05,9.67,1.45,8.48,1.06,13.99-7.04,15.12-14.59.45-3.03.61-6.12.71-9.18.1-3.11.25-6.46-.48-9.52-.25-1.04-.69-2.08-1.65-2.65l-1.95,3.34c11.75,5.76,25.19,7.47,38.02,4.85,11.71-2.39,22.48-8.64,30.59-17.4,4.49-4.86,8.17-10.43,10.79-16.51.98-2.26-2.35-4.23-3.34-1.95h0Z" style="fill:#002131; stroke-width:0px;"/><path d="M194.21,232.53c21.03-6.19,42.88-3.63,64.16-.29,9.83,1.54,19.72,2.84,29.51,4.65,9.17,1.69,18.31,3.62,27.58,4.74,10.04,1.22,20.49,1.51,30.28-1.45,2.38-.72,1.36-4.45-1.03-3.73-8.59,2.6-17.7,2.51-26.55,1.61-9.33-.95-18.51-2.89-27.72-4.62-9.68-1.82-19.46-3.1-29.19-4.64-10.57-1.67-21.18-3.28-31.88-3.81-12.18-.6-24.45.35-36.19,3.81-2.38.7-1.37,4.43,1.03,3.73h0Z" style="fill:#002131; stroke-width:0px;"/><path d="M217.43,228.02c.67,6.9,5.39,12.81,12.06,14.83l-1.16-2.84c-4.81,9.36-.22,20.92,9.89,24.12,1.17.37,2.36.55,3.57.69,1.05.12,2.23.12,3.11.79.99.76,1.65,2.02,2.58,2.88.8.75,1.7,1.42,2.63,2,4.06,2.5,9.12,3.19,13.69,1.85,2.38-.7,1.37-4.43-1.03-3.73-3.78,1.11-7.82.47-11.1-1.71-1.78-1.18-2.78-3.03-4.42-4.34-1.66-1.33-3.66-1.37-5.68-1.63-8.92-1.15-14-10.99-9.91-18.96.58-1.12.09-2.47-1.16-2.84-4.91-1.48-8.72-5.96-9.22-11.1-.24-2.45-4.11-2.48-3.87,0h0Z" style="fill:#002131; stroke-width:0px;"/><path d="M109.26,184.22c-.73-13.05,1.4-28.63,14.15-35.46,2.73-1.46,5.56-2.02,8.62-2.21,1.6-.1,3.17-.29,4.63-1,1.52-.73,2.75-1.94,4.01-3.03,4.51-3.9,10.1-6.37,15.94-7.45,5.82-1.08,11.94-.64,17.55,1.24,3.05,1.03,5.58,2.84,8.49,4.12,3.23,1.42,6.05.34,8.56-1.9,5.26-4.67,10.43-9.12,16.82-12.2,6.02-2.9,12.71-4.35,19.39-3.66,3.54.36,7.06,1.41,10.18,3.14,3.19,1.78,6.09,4.78,9.83,2.27,1.51-1.01,2.78-2.42,4.16-3.59,1.47-1.25,3-2.43,4.63-3.46,3.21-2.02,6.86-3.42,10.68-2.51,1.24.3,2.41-.58,2.45-1.86.21-7.27,5.79-13.58,12.88-14.93,2.44-.47,1.41-4.19-1.03-3.73-8.79,1.67-15.47,9.78-15.72,18.66.82-.62,1.63-1.24,2.45-1.86-7.18-1.71-13.59,2.34-18.87,6.78-1.2,1.01-2.3,2.27-3.59,3.16-1.69,1.17-3.19-.58-4.61-1.48-2.78-1.78-5.93-3.04-9.14-3.77-14.13-3.21-27.84,3.09-38.5,12.03-1.32,1.11-2.6,2.27-3.86,3.45-1.08,1.01-2.36,2.43-3.99,2.3-1.61-.13-3.17-1.52-4.55-2.26-1.39-.74-2.83-1.39-4.31-1.95-5.86-2.25-12.34-2.89-18.55-2.09-6.08.79-12.02,2.92-17.04,6.47-2.68,1.9-4.9,4.9-8.34,5.2-3.33.29-6.34.61-9.45,1.97-6.42,2.81-11.44,8.43-14.24,14.78-3.43,7.79-3.98,16.43-3.51,24.83.14,2.47,4.01,2.49,3.87,0h0Z" style="fill:#002131; stroke-width:0px;"/><path d="M126.19,174.7c13.28,12.29,34.66,14.23,49.85,4.33-.5.06-.99.13-1.49.19,11.7,1.72,24.32,1.41,35.63-2.34,8.59-2.85,17.33-8.43,19.44-17.83-1.18.15-2.36.31-3.53.46,8.54,11.57,25.24,11.26,38.09,9.55,12.93-1.72,25.28-6.51,35.25-15.05,6.47-5.54,11.65-12.46,15.64-19.95,1.17-2.2-2.17-4.15-3.34-1.95-6.35,11.91-15.73,21.72-28.03,27.49-10.51,4.93-22.74,6.9-34.3,6.35-7.24-.34-15.43-2.23-19.98-8.39-.91-1.23-3.14-1.31-3.53.46-1.43,6.35-6.5,10.57-12.14,13.29-6.86,3.31-14.78,4.53-22.31,4.92-4.25.22-8.52.11-12.75-.34-1.11-.12-2.25-.38-3.36-.43-.99-.04-1.6.48-2.41.97-1.43.87-2.93,1.64-4.48,2.29-6.09,2.53-12.89,3.32-19.41,2.47-7.44-.97-14.58-4.12-20.1-9.22-1.82-1.69-4.57,1.04-2.73,2.73h0Z" style="fill:#002131; stroke-width:0px;"/><path d="M141.23,188.62c-4.67,3.76-5.79,11.09-2.65,16.14.55.89,1.73,1.23,2.65.69.88-.52,1.25-1.76.69-2.65-.16-.26-.32-.53-.46-.81-.06-.11-.11-.22-.16-.34.14.29-.03-.08-.05-.14-.21-.55-.36-1.12-.47-1.69,0,.01-.08-.52-.05-.29.03.23-.02-.25-.03-.3-.03-.31-.04-.62-.04-.93,0-.28.01-.56.03-.84.01-.15.03-.31.05-.46-.04.28,0,0,.03-.13.1-.58.25-1.16.45-1.71.04-.12.09-.23.13-.35.2-.55-.08.17.06-.14.13-.28.27-.56.42-.83.14-.24.28-.48.44-.71,0,.01.29-.41.17-.26-.12.16.17-.21.2-.24.4-.47.85-.9,1.34-1.29.81-.66.68-2.05,0-2.73-.8-.8-1.92-.66-2.73,0h0Z" style="fill:#002131; stroke-width:0px;"/><path d="M179.32,210.4c2.26.74,4.32-.22,6.47-.84,2.65-.75,5.13.43,7.54,1.48,4.96,2.16,9.79,3.38,15.22,2.59,5.28-.76,9.6-3.29,13.62-6.69,1.95-1.64,3.92-3.43,6.32-4.39,2.09-.84,4.35-.95,6.57-.72,4.69.48,9.12,2.37,13.72,3.28,5.05.99,9.54.54,14.13-1.86,2.54-1.33,4.96-2.73,7.85-3.13,2.84-.4,5.75,0,8.52.64,4.96,1.15,9.68,3.45,14.73,4.17,4.95.71,10.03.37,14.93-.57,4.76-.92,9.62-2.51,13.59-5.36,2-1.44.08-4.79-1.95-3.34-6.76,4.85-16.34,6.36-24.49,5.65-4.77-.42-9.22-2.52-13.8-3.77-5.32-1.46-11.1-2.21-16.36-.1-2.52,1.01-4.77,2.61-7.31,3.56-2.12.8-4.34.94-6.58.72-4.62-.45-8.99-2.29-13.52-3.23-4.56-.94-9.22-.95-13.38,1.4-4.44,2.5-7.61,6.72-12.42,8.65-5.5,2.21-11.31,1.8-16.69-.51-2.64-1.14-5.49-2.65-8.44-2.66-1.28,0-2.54.35-3.75.74-1.14.37-2.33.94-3.52.55-2.37-.77-3.39,2.96-1.03,3.73h0Z" style="fill:#002131; stroke-width:0px;"/><path d="M94.96,107.65c10.17,1.88,17.91-6.07,23.39-13.54,2.83-3.85,5.53-7.88,9.21-10.98,3.75-3.17,8.53-4.73,13.36-5.18,5.71-.53,11.46.15,17.12.9,1.04.14,1.92-.99,1.93-1.93.01-1.16-.9-1.8-1.93-1.93-9.53-1.25-19.97-2.35-28.8,2.36-8.64,4.61-12.38,13.96-19.05,20.61-3.69,3.68-8.77,6.98-14.21,5.97-2.43-.45-3.48,3.28-1.03,3.73h0Z" style="fill:#002131; stroke-width:0px;"/><path d="M163.43,37.16c4.83-2.19,10.66.26,12.41,5.26,1.9,5.43-1.94,10.54-4.82,14.83-5.59,8.34-12.17,17.15-11.03,27.78.55,5.12,2.72,9.73,6.94,12.79,2.02,1.46,3.95-1.89,1.95-3.34-3.73-2.71-5.17-7.44-5.15-11.88.02-5.34,2.17-10.19,4.87-14.7,5.14-8.55,16.73-19.81,9.06-30.18-3.78-5.1-10.52-6.48-16.19-3.91-2.26,1.03-.3,4.36,1.95,3.34h0Z" style="fill:#002131; stroke-width:0px;"/><path d="M205.69,24.25c5.61,3.89,9.06,10.55,9.14,17.35.03,2.49,3.9,2.49,3.87,0-.1-8.23-4.3-16.01-11.05-20.69-.86-.6-2.15-.16-2.65.69-.56.96-.17,2.05.69,2.65h0Z" style="fill:#002131; stroke-width:0px;"/><path d="M229.81,35.67c-8.87-1.01-16.3,7.45-18.89,15.11-.67,1.96-1.08,4.13-.87,6.2.1,1.04.82,1.93,1.93,1.93.97,0,2.04-.89,1.93-1.93-.05-.49-.06-.99-.04-1.49.01-.26.03-.52.06-.78.05-.43-.03.11.04-.29.19-1.07.48-2.13.86-3.15.75-2.01,1.99-4.16,3.42-5.9,2.92-3.58,6.94-6.36,11.56-5.83,1.04.12,1.93-.97,1.93-1.93,0-1.14-.89-1.82-1.93-1.93h0Z" style="fill:#002131; stroke-width:0px;"/><path d="M210.93,51.47c-6.82,2.5-11.79,8.04-14.48,14.69-3.22,7.98-2.59,16.98-.64,25.19.58,2.42,4.31,1.4,3.73-1.03-1.73-7.28-2.31-15.09.29-22.24,2.07-5.67,6.37-10.78,12.12-12.88,2.32-.85,1.32-4.59-1.03-3.73h0Z" style="fill:#002131; stroke-width:0px;"/><path d="M86.11,68.45c.98-5.45,3.04-10.71,6.65-14.97,3.23-3.81,7.36-6.67,11.91-8.69,4.98-2.2,10.65-3.61,16.1-3.53,3.58.05,7.11.72,10.46,1.96,1.54.57,3.03,1.5,4.73,1.39,1.59-.11,2.65-1.16,3.52-2.39,3.78-5.35,10.52-5.42,16.51-5.26,2.49.06,2.49-3.8,0-3.87-5.64-.15-12.04,0-16.7,3.62-1.1.86-1.99,1.86-2.78,3.01-.47.69-.56,1.02-1.36.94-.96-.09-2.26-.94-3.17-1.27-3.4-1.22-7.03-1.87-10.65-1.99-10.92-.34-23.07,4.33-30.51,12.41-4.52,4.91-7.29,11.06-8.46,17.6-.44,2.43,3.29,3.48,3.73,1.03h0Z" style="fill:#002131; stroke-width:0px;"/><path d="M232.29,36.88c1.04-6.05,5.13-10.6,10.59-13.19,4.3-2.04,10.18-3.13,14.66-1.16,2.26.99,4.23-2.34,1.95-3.34-5.83-2.55-12.63-1.56-18.28,1.03-6.39,2.93-11.44,8.6-12.65,15.64-.42,2.43,3.31,3.48,3.73,1.03h0Z" style="fill:#002131; stroke-width:0px;"/><path d="M201.15,96.81c4.63.08,9.2,2.45,11.76,6.35,2.75,4.18,3.1,9.74.88,14.23-1.1,2.22,2.24,4.19,3.34,1.95,2.82-5.69,2.66-12.76-.88-18.13-3.32-5.05-9.07-8.16-15.1-8.26-2.49-.04-2.49,3.83,0,3.87h0Z" style="fill:#002131; stroke-width:0px;"/><path d="M170.23,101.91c6.07,2.92,7.4,10.62,2.63,15.41-2.09,2.1-4.56,4.02-5.13,7.1-.55,2.95.48,6.08,2.8,8.03,1.9,1.59,4.65-1.13,2.73-2.73-2.41-2.02-2.25-5.03-.18-7.23,2.32-2.48,4.7-4.4,5.89-7.71,2.23-6.27-.85-13.34-6.79-16.2-2.23-1.07-4.2,2.26-1.95,3.34h0Z" style="fill:#002131; stroke-width:0px;"/><path d="M124.85,110.08c2.44,1.19,4.99,2.45,6.83,4.5,2.1,2.33,1.55,5.23,1.94,8.11.8,5.76,4.46,10.95,9.59,13.68,2.2,1.17,4.15-2.17,1.95-3.34-2.5-1.33-4.53-3.27-5.94-5.72-1.5-2.6-1.84-5.24-1.96-8.19-.13-3.04-1.17-5.66-3.36-7.8-2.03-1.99-4.58-3.35-7.11-4.58-2.23-1.09-4.19,2.25-1.95,3.34h0Z" style="fill:#002131; stroke-width:0px;"/><path d="M86.14,105.4c-10.22-1.65-21.2-.91-29.43,6.01-6.91,5.8-9.83,15.54-5.69,23.84,2.13,4.26,5.96,6.71,10.27,8.42,4.09,1.62,9.2,2.82,11.68,6.85,1.37,2.23.79,4.52.43,6.95-.35,2.32-.29,4.63.22,6.93,1.03,4.59,3.8,8.77,7.22,11.94,3.09,2.85,6.96,5.32,10.88,6.87,4.15,1.65,8.76,1.77,13.17,1.78,2.49,0,2.49-3.86,0-3.87-3.6,0-7.29-.05-10.75-1.14-2.96-.93-5.7-2.71-8.22-4.48-3.42-2.4-6.4-5.85-7.87-9.79-.71-1.9-1.09-3.9-1.01-5.93.09-2.37.92-4.67.68-7.05-.42-4.11-3.45-7.25-6.89-9.24-3.88-2.25-8.46-2.98-12.25-5.41-7.03-4.51-6.96-14.55-2.26-20.69,6.7-8.75,18.69-9.88,28.8-8.24,2.43.39,3.48-3.33,1.03-3.73h0Z" style="fill:#002131; stroke-width:0px;"/><path d="M67.08,106.48c-1.78-8.51-3.18-18.47,1.89-26.18,4.21-6.39,12.58-9.63,20-7.92,2.42.56,3.46-3.17,1.03-3.73-8.91-2.05-18.47,1.57-23.85,8.95-6.27,8.6-4.84,20.16-2.8,29.91.51,2.43,4.24,1.4,3.73-1.03h0Z" style="fill:#002131; stroke-width:0px;"/><path d="M288.31,38.08c2.99,11.72-2.44,24.28-11.72,31.64-4.85,3.85-10.83,5.38-16.13,8.41-5.61,3.2-9.6,8.72-8.9,15.43.77,7.44,7.01,13.03,14.44,13.27,2.49.08,2.49-3.79,0-3.87-6.28-.21-11.14-5.6-10.61-11.86.55-6.48,6.39-9.59,11.71-11.91,5.37-2.34,10.36-4.73,14.63-8.85,4.19-4.03,7.4-9.06,9.35-14.53,2.14-6.01,2.55-12.57.96-18.77-.62-2.41-4.35-1.39-3.73,1.03h0Z" style="fill:#002131; stroke-width:0px;"/><path d="M289.06,61.59c12.66-5.78,28.22-1.03,35.35,10.92,3.36,5.64,4.58,12.04,3.81,18.53-.81,6.79-2.99,13.44-5.5,19.77-2.51,6.32-5.52,12.46-8.93,18.34-1.25,2.16,2.09,4.11,3.34,1.95,6.98-12.06,13.15-25.65,14.9-39.58,1.83-14.57-6.27-29.07-20.2-34.26-8-2.98-16.98-2.54-24.71.99-2.26,1.03-.3,4.37,1.95,3.34h0Z" style="fill:#002131; stroke-width:0px;"/><path d="M324.7,197.55c12.6-8.05,19.1-23.88,15.81-38.47-.62.82-1.24,1.63-1.86,2.45,7.16-.12,14.15-3.03,19.18-8.14,5.22-5.31,7.85-12.64,8.39-19.97.99-13.54-5.98-28.47-19.74-32.49-7.15-2.09-14.95-.94-20.81,3.73-1.95,1.55.81,4.27,2.73,2.73,4.36-3.47,10.35-4.31,15.68-3.1,5.69,1.3,10.45,4.84,13.6,9.72,6.52,10.09,6.64,25.07-.89,34.71-4.33,5.55-11.14,8.82-18.14,8.94-1.3.02-2.14,1.21-1.86,2.45,2.89,12.85-2.94,27.01-14.03,34.1-2.09,1.34-.15,4.69,1.95,3.34h0Z" style="fill:#002131; stroke-width:0px;"/><path d="M340.22,163.27c6.91,1.73,12.88,6.24,16.52,12.35,4.06,6.82,4.94,15.14,3.04,22.78-.6,2.42,3.13,3.45,3.73,1.03,2.15-8.63,1.16-18.05-3.43-25.76-4.13-6.94-10.97-12.17-18.83-14.13-2.42-.6-3.45,3.13-1.03,3.73h0Z" style="fill:#002131; stroke-width:0px;"/><path d="M361.46,184.62c5.27,2.36,10.97,3.11,16.68,2.18,1.03-.17,1.61-1.45,1.35-2.38-.3-1.1-1.34-1.52-2.38-1.35-4.58.75-9.46.11-13.7-1.79-.95-.43-2.08-.28-2.65.69-.48.83-.26,2.22.69,2.65h0Z" style="fill:#002131; stroke-width:0px;"/><path d="M316.21,240.46c12.8.32,21.73-11.74,21.19-23.88-.82.62-1.63,1.24-2.45,1.86,14.82,5.16,32.14,1.09,43.18-10.04,1.76-1.77-.98-4.51-2.73-2.73-10.13,10.21-25.86,13.77-39.41,9.04-1.16-.4-2.5.67-2.45,1.86.45,10.07-6.57,20.28-17.32,20.02-2.49-.06-2.49,3.81,0,3.87h0Z" style="fill:#002131; stroke-width:0px;"/><path d="M164.08,199.2c3.96,5.69,9.99,9.81,16.8,11.25,1.02.21,2.09-.3,2.38-1.35.26-.96-.32-2.16-1.35-2.38-5.8-1.22-11.09-4.58-14.49-9.47-.6-.86-1.69-1.25-2.65-.69-.85.5-1.29,1.78-.69,2.65h0Z" style="fill:#002131; stroke-width:0px;"/><path d="M172.3,205.57c-5.39,4.33-7.67,12.01-5.7,18.61.71,2.38,4.45,1.37,3.73-1.03-1.6-5.34.27-11.28,4.7-14.85.81-.65.68-2.05,0-2.73-.81-.81-1.92-.66-2.73,0h0Z" style="fill:#002131; stroke-width:0px;"/><path d="M140,182.53c-.95,2.49-1.33,5.23-1.09,7.88.05.52.18.99.57,1.37.34.34.89.59,1.37.57.97-.04,2.03-.85,1.93-1.93-.06-.63-.08-1.27-.06-1.91,0-.27.02-.55.04-.82.01-.18.03-.36.05-.54.02-.14.13-.53,0-.03.14-.57.2-1.17.35-1.74.16-.62.35-1.22.58-1.82.36-.95-.4-2.16-1.35-2.38-1.1-.25-1.99.34-2.38,1.35h0Z" style="fill:#002131; stroke-width:0px;"/><path d="M49.63,140.35c-11.27,10.36-5.14,27.78,2.97,38,7.73,9.75,19.73,17.04,32.41,17.09,8.05.03,15.47-3.08,21.76-7.97,1.96-1.53-.79-4.25-2.73-2.73-4.94,3.85-10.88,6.44-17.17,6.79-5.61.32-11.21-.99-16.24-3.46-9.97-4.89-18.26-13.85-21.8-24.44-2.32-6.97-2.21-15.25,3.55-20.54,1.84-1.69-.9-4.42-2.73-2.73h0Z" style="fill:#002131; stroke-width:0px;"/><path d="M49.46,141.83c-7.56-7.83-11.83-18.56-11.58-29.45.24-10.58,4.84-20.97,12.44-28.32,1.88-1.82,3.99-3.44,5.38-5.69,1.52-2.47,1.68-5.38,2.27-8.15,1.09-5.06,3.07-9.87,5.81-14.26,5.69-9.08,14.57-15.8,24.86-18.78,5.36-1.55,10.96-2.11,16.51-1.6,2.86.26,5.75,1,8.51-.18,2.38-1.02,3.96-3.1,5.73-4.9,6.78-6.93,16.31-11.01,25.96-11.55,4.89-.27,9.78.33,14.42,1.89,2.74.92,5.3,1.92,8.12.72,2.3-.97,3.99-2.89,5.87-4.46,7.05-5.92,16.14-9.36,25.27-10.19,9.27-.84,18.82.79,27.09,5.14,2.06,1.09,4.05,2.33,5.91,3.74,1.92,1.45,3.65,3.4,6,4.14,2.44.77,4.78-.31,7.17-.74,2-.36,4.07-.5,6.1-.37,1.47.1,3.65.33,4.59,1.65,1.43,2.02,4.78.09,3.34-1.95-2.53-3.58-7.47-3.84-11.47-3.52-2.4.19-4.6.83-6.95,1.26-2.58.47-4.6-2.11-6.47-3.54-7.79-5.94-17.42-9.16-27.15-9.79-9.66-.63-19.55,1.38-28.11,5.95-2.13,1.13-4.16,2.44-6.08,3.9-1.98,1.5-3.7,3.49-5.81,4.79-2.59,1.6-5.39-.21-7.99-.97-2.44-.7-4.95-1.15-7.48-1.4-10.12-1.01-20.73,1.73-29.09,7.52-2.14,1.49-4.17,3.16-6,5.02-1.89,1.93-3.48,4.38-6.44,4.45-2.93.07-5.88-.66-8.82-.69-2.86-.02-5.72.24-8.54.72-11.03,1.86-21.31,7.7-28.46,16.31-3.47,4.18-6.22,8.86-8.16,13.94-.95,2.49-1.69,5.05-2.2,7.67-.58,3.02-.88,5.7-3.11,8.01-1.9,1.97-4.02,3.69-5.82,5.77-1.79,2.07-3.42,4.3-4.81,6.65-2.83,4.79-4.81,10.14-5.7,15.63-1.78,11.02.71,22.55,6.9,31.85,1.54,2.32,3.29,4.49,5.23,6.49,1.73,1.79,4.47-.94,2.73-2.73h0Z" style="fill:#002131; stroke-width:0px;"/><path d="M98.98,72.69c8.06.37,15.99,3.3,22.29,8.36.81.65,1.94.8,2.73,0,.68-.68.82-2.08,0-2.73-7.15-5.73-15.86-9.08-25.03-9.49-2.49-.11-2.48,3.75,0,3.87h0Z" style="fill:#002131; stroke-width:0px;"/><path d="M107.51,60.61c-.78,4.05-.26,8.12,1.48,11.85.43.92,1.82,1.22,2.65.69.95-.61,1.15-1.66.69-2.65-.03-.06-.31-.72-.17-.38-.07-.17-.14-.34-.2-.51-.15-.4-.28-.81-.4-1.22-.12-.41-.22-.83-.3-1.24-.04-.18-.07-.36-.1-.54-.02-.12-.04-.24-.06-.36.02.18.03.2,0,.06-.08-.82-.13-1.64-.11-2.47.01-.43.05-.85.09-1.28.05-.59-.07.38.02-.21.04-.24.08-.48.13-.72.19-.99-.28-2.13-1.35-2.38-.96-.22-2.17.29-2.38,1.35h0Z" style="fill:#002131; stroke-width:0px;"/><path d="M356.02,155.06c5.46-.58,10.98,1.16,15.01,4.92,1.82,1.7,4.56-1.03,2.73-2.73-4.72-4.41-11.29-6.73-17.74-6.05-1.04.11-1.93.81-1.93,1.93,0,.96.89,2.04,1.93,1.93h0Z" style="fill:#002131; stroke-width:0px;"/><path d="M370.28,157.25c2.62-3.05,5.52-5.85,8.66-8.37.79-.64.71-2.08,0-2.73-.84-.77-1.89-.68-2.73,0-3.14,2.51-6.04,5.32-8.66,8.37-.66.77-.81,1.99,0,2.73.72.66,2.03.82,2.73,0h0Z" style="fill:#002131; stroke-width:0px;"/><path d="M176.79,15.64c8.61-2.98,17.83-.39,25.27,4.38,2.1,1.35,4.04-2,1.95-3.34-8.25-5.28-18.73-8.07-28.25-4.77-2.34.81-1.33,4.55,1.03,3.73h0Z" style="fill:#002131; stroke-width:0px;"/><path d="M265.15,91.8c-.69,5.74.35,11.53,2.78,16.76.44.95,1.81,1.19,2.65.69.97-.57,1.13-1.69.69-2.65-2.14-4.62-2.85-9.77-2.25-14.81.12-1.04-.98-1.93-1.93-1.93-1.15,0-1.81.89-1.93,1.93h0Z" style="fill:#002131; stroke-width:0px;"/><path d="M259.01,22.05c11.31-7.05,27.3,1.9,29.14,14.55.36,2.45,4.08,1.41,3.73-1.03-2.2-15.13-21.57-25.12-34.82-16.86-2.11,1.31-.17,4.66,1.95,3.34h0Z" style="fill:#002131; stroke-width:0px;"/><path d="M290.52,38.55c8.55-2.41,17.92-1.46,25.81,2.64,7.86,4.09,13.81,11.19,16.64,19.57,1.59,4.72,2.18,9.65,1.73,14.61-.12,1.39,1.33,2.03,2.45,1.86,9.86-1.47,19.97,4.12,25.19,12.37,5.99,9.49,5.81,21.61,1.73,31.79-.29.73.18,1.85.89,2.18,8.7,4.18,13.49,14.61,10.8,23.92-.32,1.11.6,2.58,1.86,2.45,7.95-.84,8.66,10.65,9,16.04.38,6.26-.76,14.62-7.61,17.1-1.61.58-1.87,2.57-.46,3.53,3.54,2.44,5.54,7.07,4.63,11.32-.9,4.18-4.24,7.46-8.35,8.5-1.11.28-1.91,1.83-1.16,2.84,5.29,7.1-2.09,15.1-7.31,19.58-6.01,5.16-14.08,9.46-22.19,7.46-2.42-.6-3.45,3.13-1.03,3.73,9.74,2.41,19.2-2.52,26.36-8.8,3.5-3.07,6.87-6.62,8.65-10.99,1.69-4.15,1.61-9.23-1.14-12.92-.39.95-.77,1.89-1.16,2.84,5.49-1.39,10.11-6.01,11.14-11.65,1.07-5.91-1.59-11.86-6.49-15.24l-.46,3.53c8.85-3.19,11.02-13.03,10.4-21.44-.33-4.49-.69-9.43-2.89-13.45-1.94-3.54-5.77-6.29-9.93-5.85.62.82,1.24,1.63,1.86,2.45,3.13-10.86-2.36-23.38-12.58-28.29.3.73.59,1.46.89,2.18,3.59-8.95,4.27-19.37.91-28.5-3.14-8.54-9.65-15.36-18.11-18.76-4.62-1.86-9.57-2.39-14.48-1.66.82.62,1.63,1.24,2.45,1.86.86-9.65-2.11-19.5-8.01-27.17-5.99-7.79-14.92-12.93-24.63-14.37-5.5-.81-11.08-.52-16.44.99-2.39.67-1.38,4.41,1.03,3.73h0Z" style="fill:#002131; stroke-width:0px;"/><path d="M43.61,200.86c-11.96,3.3-14.64,5.98-17.94,17.94-3.3-11.96-5.98-14.64-17.94-17.94,11.96-3.3,14.64-5.98,17.94-17.94,3.3,11.96,5.98,14.64,17.94,17.94Z" style="fill:none; stroke:#002131; stroke-miterlimit:10; stroke-width:2.56px;"/><path d="M442.27,100.99c-11.96,3.3-14.64,5.98-17.94,17.94-3.3-11.96-5.98-14.64-17.94-17.94,11.96-3.3,14.64-5.98,17.94-17.94,3.3,11.96,5.98,14.64,17.94,17.94Z" style="fill:none; stroke:#002131; stroke-miterlimit:10; stroke-width:2.56px;"/><path d="M32.16,140.62c-6.44,1.78-7.88,3.22-9.66,9.66-1.78-6.44-3.22-7.88-9.66-9.66,6.44-1.78,7.88-3.22,9.66-9.66,1.78,6.44,3.22,7.88,9.66,9.66Z" style="fill:none; stroke:#002131; stroke-miterlimit:10; stroke-width:2.56px;"/><path d="M65.45,226.22c-6.44,1.78-7.88,3.22-9.66,9.66-1.78-6.44-3.22-7.88-9.66-9.66,6.44-1.78,7.88-3.22,9.66-9.66,1.78,6.44,3.22,7.88,9.66,9.66Z" style="fill:none; stroke:#002131; stroke-miterlimit:10; stroke-width:2.56px;"/><path d="M399.91,69.29c-6.44,1.78-7.88,3.22-9.66,9.66-1.78-6.44-3.22-7.88-9.66-9.66,6.44-1.78,7.88-3.22,9.66-9.66,1.78,6.44,3.22,7.88,9.66,9.66Z" style="fill:none; stroke:#002131; stroke-miterlimit:10; stroke-width:2.56px;"/><path d="M408.63,142.65c-6.44,1.78-7.88,3.22-9.66,9.66-1.78-6.44-3.22-7.88-9.66-9.66,6.44-1.78,7.88-3.22,9.66-9.66,1.78,6.44,3.22,7.88,9.66,9.66Z" style="fill:none; stroke:#002131; stroke-miterlimit:10; stroke-width:2.56px;"/></svg>