<?xml version="1.0" encoding="utf-8"?>
<!-- Generator: Adobe Illustrator 28.1.0, SVG Export Plug-In . SVG Version: 6.00 Build 0)  -->
<svg version="1.1" id="Calque_1" xmlns="http://www.w3.org/2000/svg" xmlns:xlink="http://www.w3.org/1999/xlink" x="0px" y="0px"
	 viewBox="0 0 26 26" style="enable-background:new 0 0 26 26;" xml:space="preserve">
<style type="text/css">
	.st0{fill:#002131;}
</style>
<path class="st0" d="M15.5,12c-0.8,0-1.5,0.7-1.5,1.5s0.7,1.5,1.5,1.5c0.8,0,1.5-0.7,1.5-1.5C17,12.7,16.3,12,15.5,12z M10.5,12
	C9.7,12,9,12.7,9,13.5S9.7,15,10.5,15c0.8,0,1.5-0.7,1.5-1.5C12,12.7,11.3,12,10.5,12z"/>
<path class="st0" d="M13,0C5.8,0,0,5.8,0,13s5.8,13,13,13s13-5.8,13-13C26,5.8,20.2,0,13,0z M21.1,17.2c-1.2,0.9-2.6,1.7-4.1,2.1
	c-0.3-0.5-0.6-0.9-0.9-1.5c0.5-0.2,0.9-0.4,1.4-0.7c-0.1-0.1-0.2-0.2-0.3-0.3c-2.6,1.3-5.6,1.3-8.2,0c-0.1,0.1-0.2,0.2-0.3,0.3
	c0.4,0.3,0.9,0.5,1.4,0.7c-0.2,0.5-0.6,1-0.9,1.5c-1.5-0.5-2.9-1.2-4.1-2.1C4.6,14.1,5.2,11,7.3,7.8c1.1-0.5,2.2-0.9,3.4-1.1
	C10.9,7,11,7.3,11.1,7.6c1.2-0.2,2.5-0.2,3.7,0C15,7.3,15.2,7,15.3,6.7c1.2,0.2,2.3,0.6,3.4,1.1C20.5,10.5,21.4,13.6,21.1,17.2z"/>
</svg>
