<?xml version="1.0" encoding="utf-8"?>
<!-- Generator: Adobe Illustrator 28.1.0, SVG Export Plug-In . SVG Version: 6.00 Build 0)  -->
<svg version="1.1" id="Calque_1" xmlns="http://www.w3.org/2000/svg" xmlns:xlink="http://www.w3.org/1999/xlink" x="0px" y="0px"
	 viewBox="0 0 27 26" style="enable-background:new 0 0 27 26;" xml:space="preserve">
<style type="text/css">
	.st0{fill-rule:evenodd;clip-rule:evenodd;fill:#002131;}
</style>
<path class="st0" d="M13.5,0C6,0,0,6,0,13.3C0,19.2,3.9,24.2,9.2,26c0.7,0.1,0.9-0.3,0.9-0.6c0-0.3,0-1.1,0-2.3
	c-3.8,0.8-4.6-1.8-4.6-1.8c-0.6-1.5-1.5-2-1.5-2c-1.2-0.8,0.1-0.8,0.1-0.8c1.4,0.1,2.1,1.4,2.1,1.4c1.2,2,3.2,1.4,3.9,1.1
	c0.1-0.9,0.5-1.4,0.9-1.8c-3-0.3-6.2-1.5-6.2-6.6c0-1.5,0.5-2.6,1.4-3.6C6.1,8.7,5.7,7.4,6.4,5.5c0,0,1.1-0.4,3.7,1.4
	c1.1-0.3,2.2-0.4,3.4-0.4c1.1,0,2.3,0.2,3.4,0.4c2.6-1.7,3.7-1.4,3.7-1.4c0.7,1.8,0.3,3.2,0.1,3.5c0.9,0.9,1.4,2.1,1.4,3.6
	c0,5.1-3.2,6.2-6.2,6.6c0.5,0.4,0.9,1.2,0.9,2.5c0,1.8,0,3.2,0,3.7c0,0.4,0.2,0.8,0.9,0.6c5.4-1.8,9.2-6.8,9.2-12.6
	C27,6,21,0,13.5,0z"/>
</svg>
