<?xml version="1.0" encoding="utf-8"?>
<!-- Generator: Adobe Illustrator 28.1.0, SVG Export Plug-In . SVG Version: 6.00 Build 0)  -->
<svg version="1.1" id="Calque_1" xmlns="http://www.w3.org/2000/svg" xmlns:xlink="http://www.w3.org/1999/xlink" x="0px" y="0px"
	 viewBox="0 0 26 26" style="enable-background:new 0 0 26 26;" xml:space="preserve">
<style type="text/css">
	.st0{fill:#002131;}
</style>
<path class="st0" d="M13,0C5.8,0,0,5.8,0,13s5.8,13,13,13s13-5.8,13-13C26,5.8,20.2,0,13,0z M19,8.8c-0.2,2.1-1,7-1.5,9.3
	c-0.2,1-0.5,1.3-0.9,1.3c-0.8,0.1-1.3-0.5-2.1-1c-1.1-0.7-1.8-1.2-2.9-1.9c-1.3-0.8-0.5-1.3,0.3-2.1c0.2-0.2,3.5-3.2,3.6-3.5
	c0,0,0-0.2-0.1-0.2c-0.1-0.1-0.2,0-0.3,0c-0.1,0-1.9,1.2-5.5,3.6c-0.5,0.4-1,0.5-1.4,0.5c-0.5,0-1.4-0.3-2-0.5
	c-0.8-0.3-1.5-0.4-1.4-0.9c0-0.2,0.3-0.5,1-0.7c2.5-1.1,5-2.2,7.6-3.3c3.6-1.5,4.4-1.8,4.9-1.8c0.1,0,0.3,0,0.5,0.1
	C18.9,8.1,19,8.2,19,8.3C19,8.4,19,8.7,19,8.8z"/>
</svg>
