<?xml version="1.0" encoding="UTF-8"?><svg id="Calque_1" xmlns="http://www.w3.org/2000/svg" viewBox="0 0 162.69 36.72"><polygon points="18.19 36.72 0 18.29 18.39 .15 22.66 4.48 20.23 6.86 18.39 4.96 4.82 18.34 18.19 31.91 19.94 30.2 22.32 32.64 18.19 36.72 18.19 36.72" style="fill:#002131; stroke-width:0px;"/><polygon points="31.56 25.44 29.18 23 33.7 18.53 29.03 13.77 31.42 11.38 38.52 18.58 31.56 25.44 31.56 25.44" style="fill:#ff9500; stroke-width:0px;"/><path d="M17.95,18.19l13.37,13.57,13.52-13.37-13.37-13.57-13.52,13.37h0ZM31.27,36.53L13.13,18.14l13.81-13.62h0L31.51,0l18.14,18.43-18.39,18.09h0Z" style="fill:#002131; stroke-width:0px;"/><path d="M78.7,31.21c-.48,0-.69-.26-.79-.48l-2.39-5.8h-12.51l-2.28,5.78c-.1.23-.32.49-.79.49h-2.72c-.08,0-.15-.04-.2-.11-.04-.07-.05-.15-.02-.22l10.38-25.39c.04-.09.12-.15.22-.15h2.64c.37,0,.66.19.79.53l10.64,25c.03.07.02.15-.02.22-.04.07-.12.11-.2.11h-2.76ZM74.33,22.05l-1.59-3.81c-1.89-4.54-3.1-7.51-3.62-8.85l-4.97,12.66h10.18Z" style="fill:#002131; stroke-width:0px;"/><path d="M70.24,5.59c.28,0,.47.13.57.38l10.64,25.01h-2.76c-.28,0-.47-.11-.57-.35l-2.45-5.94h-12.83l-2.33,5.94c-.1.23-.29.35-.57.35h-2.72l10.38-25.39h2.64M63.8,22.28h10.88l-1.72-4.13c-2.25-5.41-3.52-8.55-3.83-9.42l-3.72,9.46-1.61,4.1M70.24,5.11h-2.64c-.19,0-.37.12-.44.29l-10.38,25.39c-.06.15-.04.31.04.44s.24.21.39.21h2.72c.47,0,.83-.22,1.01-.63,0,0,0-.01,0-.02l2.22-5.63h12.19l2.33,5.64c.18.42.54.64,1.01.64h2.76c.16,0,.31-.08.4-.21.09-.13.1-.3.04-.45l-10.64-25.01c-.17-.42-.54-.67-1.01-.67h0ZM64.5,21.81l1.36-3.45,3.27-8.32c.61,1.53,1.74,4.31,3.4,8.29l1.45,3.48h-9.47,0Z" style="fill:#002131; stroke-width:0px;"/><path d="M98.46,31.21c-.38,0-.68-.13-.9-.39l-5.94-7.43-5.48,7.45c-.21.25-.5.36-.88.36h-2.57c-.09,0-.17-.05-.21-.13-.04-.08-.03-.18.02-.25l7.24-9.7-7.01-8.7c-.06-.07-.07-.17-.03-.25s.12-.13.21-.13h2.84c.35,0,.64.13.87.39l5.21,6.66,4.87-6.64c.2-.27.5-.4.88-.4h2.49c.09,0,.17.05.21.13.04.08.03.18-.02.25l-6.59,8.81,7.81,9.58c.06.07.07.17.03.25s-.12.13-.21.13h-2.84Z" style="fill:#002131; stroke-width:0px;"/><path d="M100.07,12.29l-6.7,8.96,7.93,9.73h-2.84c-.31,0-.55-.1-.73-.31l-6.13-7.66-5.67,7.7c-.15.18-.38.27-.69.27h-2.57l7.35-9.84-7.12-8.84h2.84c.28,0,.51.1.69.31l5.4,6.89,5.06-6.89c.15-.2.38-.31.69-.31h2.49M100.07,11.81h-2.49c-.57,0-.9.27-1.07.5l-4.69,6.4-5.01-6.4s-.01-.01-.02-.02c-.27-.31-.63-.47-1.04-.47h-2.84c-.18,0-.35.11-.43.27-.08.16-.06.36.06.5l6.89,8.56-7.13,9.55c-.11.14-.12.33-.04.5.08.16.24.26.42.26h2.57c.56,0,.88-.24,1.05-.43,0,0,.02-.02.02-.03l5.3-7.2,5.74,7.18c.28.32.66.48,1.1.48h2.84c.18,0,.35-.11.43-.27s.05-.36-.06-.5l-7.7-9.44,6.48-8.67c.11-.14.13-.33.04-.5-.08-.16-.24-.26-.42-.26h0ZM100.07,12.76h0Z" style="fill:#002131; stroke-width:0px;"/><path d="M111.4,31.52c-2.63,0-4.86-.93-6.62-2.77-1.76-1.84-2.65-4.23-2.65-7.11s.89-5.28,2.65-7.11c1.76-1.84,3.99-2.77,6.62-2.77h.11c2.63,0,4.86.93,6.62,2.77,1.76,1.84,2.65,4.23,2.65,7.11s-.89,5.28-2.65,7.11c-1.76,1.84-3.99,2.77-6.62,2.77h-.11ZM111.4,14.9c-1.86,0-3.31.57-4.3,1.7-1,1.14-1.51,2.83-1.51,5.03s.51,3.89,1.51,5.03c.99,1.13,2.44,1.7,4.3,1.7h.11c1.86,0,3.31-.57,4.3-1.7,1-1.14,1.51-2.83,1.51-5.03s-.51-3.89-1.51-5.03c-.99-1.13-2.44-1.7-4.3-1.7h-.11Z" style="fill:#002131; stroke-width:0px;"/><path d="M111.52,11.98c2.58,0,4.73.9,6.45,2.7s2.58,4.11,2.58,6.95-.86,5.15-2.58,6.95c-1.72,1.8-3.87,2.7-6.45,2.7h-.11c-2.58,0-4.73-.9-6.45-2.7s-2.59-4.11-2.59-6.95.86-5.15,2.59-6.95c1.72-1.8,3.87-2.7,6.45-2.7h.11M111.4,28.6h.11c1.94,0,3.43-.59,4.48-1.78s1.57-2.92,1.57-5.19-.53-4-1.57-5.19c-1.05-1.19-2.54-1.78-4.48-1.78h-.11c-1.94,0-3.43.59-4.48,1.78s-1.57,2.92-1.57,5.19.52,4,1.57,5.19c1.05,1.19,2.54,1.78,4.48,1.78M111.52,11.51h-.11c-2.7,0-4.99.96-6.8,2.85-1.8,1.88-2.72,4.33-2.72,7.28s.91,5.39,2.72,7.28c1.81,1.89,4.09,2.85,6.8,2.85h.11c2.7,0,4.99-.96,6.8-2.85,1.8-1.88,2.72-4.33,2.72-7.28s-.91-5.39-2.72-7.28c-1.81-1.89-4.09-2.85-6.8-2.85h0ZM111.4,28.13c-1.81,0-3.17-.53-4.13-1.62-.96-1.09-1.45-2.73-1.45-4.88s.49-3.78,1.45-4.88,2.31-1.62,4.13-1.62h.11c1.81,0,3.17.53,4.13,1.62.96,1.09,1.45,2.73,1.45,4.88s-.49,3.78-1.45,4.88-2.31,1.62-4.13,1.62h-.11Z" style="fill:#002131; stroke-width:0px;"/><path d="M137.98,31.21c-.13,0-.24-.11-.24-.24v-11.72c0-1.56-.33-2.68-.97-3.32s-1.87-1-3.58-1c-1.47,0-3.06.32-4.74.94l-.31.11c-.19.07-.27.19-.27.39v14.59c0,.13-.11.24-.24.24h-2.87c-.13,0-.24-.11-.24-.24V12.29c0-.13.11-.24.24-.24h2.07c.1,0,.19.07.22.16l.45,1.35.95-.46c1.89-.9,3.65-1.36,5.23-1.36,2.4,0,4.29.71,5.61,2.1,1.19,1.27,1.79,3.04,1.79,5.26v11.87c0,.13-.11.24-.24.24h-2.88Z" style="fill:#002131; stroke-width:0px;"/><path d="M133.69,11.98c2.35,0,4.16.68,5.44,2.03,1.15,1.23,1.72,2.93,1.72,5.09v11.87h-2.87v-11.72c0-1.63-.35-2.79-1.03-3.48s-1.97-1.07-3.75-1.07c-1.51,0-3.12.32-4.82.96l-.31.11c-.28.1-.42.31-.42.61v14.59h-2.87V12.29h2.07l.54,1.61,1.19-.57c1.86-.89,3.57-1.34,5.13-1.34M133.69,11.51c-1.62,0-3.42.47-5.34,1.39l-.7.34-.37-1.1c-.07-.19-.24-.32-.45-.32h-2.07c-.26,0-.47.21-.47.47v18.69c0,.26.21.47.47.47h2.87c.26,0,.47-.21.47-.47v-14.59c0-.12.03-.14.11-.17l.31-.12c1.65-.62,3.22-.93,4.66-.93,1.65,0,2.8.31,3.42.93.59.59.9,1.65.9,3.15v11.72c0,.26.21.47.47.47h2.87c.26,0,.47-.21.47-.47v-11.87c0-2.29-.62-4.11-1.85-5.42-1.36-1.45-3.31-2.18-5.78-2.18h0Z" style="fill:#002131; stroke-width:0px;"/><path d="M153.83,31.52c-2.76,0-5.03-.95-6.74-2.84-1.71-1.87-2.57-4.24-2.57-7.05s.87-5.28,2.59-7.11c1.72-1.84,3.91-2.77,6.49-2.77s4.7.88,6.36,2.62c1.66,1.74,2.5,3.9,2.5,6.42,0,1.17-.33,1.77-.97,1.77h-13.5c.13,1.76.7,3.19,1.7,4.25,1.03,1.11,2.51,1.67,4.4,1.67,1.39,0,2.98-.38,4.73-1.13l1.95-.84s.06-.02.09-.02c.07,0,.15.04.19.1l1.03,1.45c.07.1.05.24-.04.32-1.14.96-2.46,1.73-3.91,2.3-1.47.57-2.92.86-4.32.86h0ZM159.13,19.86c-.16-1.5-.69-2.73-1.59-3.64-.95-.96-2.25-1.44-3.89-1.44-1.54,0-2.83.47-3.84,1.39-.96.88-1.55,2.12-1.75,3.69h11.08,0Z" style="fill:#002131; stroke-width:0px;"/><path d="M153.6,11.98c2.5,0,4.56.85,6.18,2.55s2.43,3.78,2.43,6.26c0,1.02-.24,1.53-.73,1.53h-13.75c.1,1.94.7,3.49,1.78,4.65s2.61,1.74,4.57,1.74c1.43,0,3.04-.38,4.82-1.15l1.95-.84,1.03,1.45c-1.12.95-2.41,1.7-3.85,2.26-1.44.56-2.85.84-4.23.84-2.71,0-4.9-.92-6.57-2.76-1.67-1.84-2.51-4.13-2.51-6.89s.84-5.15,2.53-6.95,3.79-2.7,6.32-2.7M147.78,20.1h11.6c-.13-1.69-.69-3.03-1.69-4.04-.99-1.01-2.35-1.51-4.06-1.51-1.61,0-2.94.48-4,1.45-1.06.97-1.68,2.33-1.86,4.1M153.6,11.51c-2.65,0-4.89.96-6.66,2.85-1.76,1.88-2.66,4.33-2.66,7.27s.88,5.29,2.63,7.21c1.76,1.93,4.09,2.91,6.92,2.91,1.43,0,2.91-.29,4.4-.88,1.48-.58,2.82-1.36,3.98-2.34.19-.16.22-.44.08-.64l-1.03-1.45c-.09-.13-.24-.2-.39-.2-.06,0-.13.01-.19.04l-1.95.84c-1.72.74-3.28,1.11-4.64,1.11-1.85,0-3.23-.52-4.23-1.59-.91-.97-1.45-2.27-1.62-3.86h13.24c.55,0,1.2-.35,1.2-2,0-2.59-.86-4.81-2.56-6.59-1.71-1.79-3.9-2.69-6.53-2.69h0ZM148.32,19.63c.23-1.39.78-2.49,1.64-3.28.98-.9,2.18-1.33,3.68-1.33,1.59,0,2.81.45,3.72,1.37.81.82,1.31,1.91,1.5,3.23h-10.54Z" style="fill:#002131; stroke-width:0px;"/></svg>