<?xml version="1.0" encoding="UTF-8"?><svg id="uuid-a3f01303-4dbb-4d58-96a6-9646e13a3ac1" xmlns="http://www.w3.org/2000/svg" viewBox="0 0 339.89 372.15"><circle cx="135.04" cy="141.05" r="35.68" style="fill:#f2f2f2; stroke-width:0px;"/><circle cx="304.21" cy="43.54" r="35.68" style="fill:#f2f2f2; stroke-width:0px;"/><circle cx="35.68" cy="336.47" r="35.68" style="fill:#f2f2f2; stroke-width:0px;"/><circle cx="197.41" cy="295.49" r="35.68" style="fill:#f2f2f2; stroke-width:0px;"/><circle cx="278.66" cy="195.89" r="35.68" style="fill:#f2f2f2; stroke-width:0px;"/><circle cx="71.35" cy="35.68" r="35.68" style="fill:#f2f2f2; stroke-width:0px;"/><polygon points="63.92 56.25 43.43 35.49 64.15 15.05 68.96 19.93 66.22 22.61 64.15 20.47 48.86 35.54 63.92 50.83 65.9 48.9 68.58 51.65 63.92 56.25 63.92 56.25" style="fill:#002131; stroke-width:0px;"/><polygon points="78.99 43.54 76.3 40.79 81.4 35.76 76.14 30.39 78.83 27.7 86.83 35.81 78.99 43.54 78.99 43.54" style="fill:#ff9500; stroke-width:0px;"/><path d="M63.65,35.37l15.06,15.29,15.23-15.06-15.06-15.29-15.23,15.06h0ZM78.66,56.03l-20.43-20.72,15.56-15.34h0l5.15-5.09,20.43,20.76-20.72,20.38h.01Z" style="fill:#002131; stroke-width:0px;"/><polygon points="127.61 161.62 107.12 140.86 127.84 120.43 132.65 125.3 129.91 127.99 127.84 125.84 112.55 140.92 127.61 156.2 129.58 154.28 132.26 157.03 127.61 161.62 127.61 161.62" style="fill:#002131; stroke-width:0px;"/><polygon points="142.67 148.92 139.99 146.17 145.08 141.13 139.82 135.77 142.52 133.08 150.51 141.19 142.67 148.92 142.67 148.92" style="fill:#ff9500; stroke-width:0px;"/><path d="M127.34,140.75l15.06,15.29,15.23-15.06-15.06-15.29-15.23,15.06h0ZM142.35,161.41l-20.43-20.72,15.56-15.34h0l5.15-5.09,20.43,20.76-20.72,20.38h.01Z" style="fill:#002131; stroke-width:0px;"/><polygon points="296.78 64.11 276.29 43.35 297.01 22.91 301.82 27.79 299.08 30.47 297.01 28.33 281.72 43.41 296.78 58.69 298.76 56.77 301.44 59.51 296.78 64.11 296.78 64.11" style="fill:#002131; stroke-width:0px;"/><polygon points="311.85 51.4 309.16 48.65 314.26 43.62 309 38.26 311.69 35.56 319.69 43.68 311.85 51.4 311.85 51.4" style="fill:#ff9500; stroke-width:0px;"/><path d="M296.51,43.24l15.06,15.29,15.23-15.06-15.06-15.29-15.23,15.06h0ZM311.52,63.9l-20.43-20.72,15.56-15.34h0l5.15-5.09,20.43,20.76-20.72,20.38h.01Z" style="fill:#002131; stroke-width:0px;"/><polygon points="28.25 357.04 7.76 336.28 28.47 315.85 33.28 320.72 30.55 323.41 28.47 321.27 13.19 336.34 28.25 351.62 30.22 349.7 32.9 352.45 28.25 357.04 28.25 357.04" style="fill:#002131; stroke-width:0px;"/><polygon points="43.31 344.34 40.63 341.59 45.72 336.55 40.46 331.19 43.15 328.5 51.15 336.61 43.31 344.34 43.31 344.34" style="fill:#ff9500; stroke-width:0px;"/><path d="M27.98,336.17l15.06,15.29,15.23-15.06-15.06-15.29-15.23,15.06h0ZM42.98,356.83l-20.43-20.72,15.56-15.34h0l5.15-5.09,20.43,20.76-20.72,20.38h.01Z" style="fill:#002131; stroke-width:0px;"/><polygon points="189.98 316.06 169.49 295.3 190.2 274.86 195.01 279.74 192.28 282.42 190.2 280.28 174.92 295.36 189.98 310.64 191.95 308.72 194.63 311.46 189.98 316.06 189.98 316.06" style="fill:#002131; stroke-width:0px;"/><polygon points="205.04 303.35 202.36 300.61 207.45 295.57 202.19 290.21 204.88 287.52 212.88 295.63 205.04 303.35 205.04 303.35" style="fill:#ff9500; stroke-width:0px;"/><path d="M189.71,295.19l15.06,15.29,15.23-15.06-15.06-15.29-15.23,15.06h0ZM204.71,315.85l-20.43-20.72,15.56-15.34h0l5.15-5.09,20.43,20.76-20.72,20.38h.01Z" style="fill:#002131; stroke-width:0px;"/><polygon points="271.23 216.46 250.74 195.7 271.46 175.27 276.27 180.15 273.53 182.83 271.46 180.69 256.17 195.76 271.23 211.05 273.2 209.12 275.89 211.87 271.23 216.46 271.23 216.46" style="fill:#002131; stroke-width:0px;"/><polygon points="286.29 203.76 283.61 201.01 288.7 195.97 283.44 190.61 286.14 187.92 294.13 196.03 286.29 203.76 286.29 203.76" style="fill:#ff9500; stroke-width:0px;"/><path d="M270.96,195.59l15.06,15.29,15.23-15.06-15.06-15.29-15.23,15.06h0ZM285.97,216.25l-20.43-20.72,15.56-15.34h0l5.15-5.09,20.43,20.76-20.72,20.38h.01Z" style="fill:#002131; stroke-width:0px;"/></svg>