<svg xmlns="http://www.w3.org/2000/svg" width="238.48" height="195.673" viewBox="0 0 238.48 195.673">
  <g id="Groupe_13" data-name="Groupe 13" transform="translate(-1678.253 0)">
    <g id="Groupe_12" data-name="Groupe 12">
      <path id="Tracé_18" data-name="Tracé 18" d="M1681.009,37.3l184.4,8.569-21.023,146.967L1857.054,2.841Z" fill="none" stroke="#002131" stroke-width="0.56"/>
      <path id="Tracé_19" data-name="Tracé 19" d="M1681.009,37.3h0l80.557,101.189,152.326-16.894L1681.009,37.3" fill="none" stroke="#002131" stroke-width="0.56"/>
    </g>
    <circle id="Ellipse_15" data-name="Ellipse 15" cx="2.841" cy="2.841" r="2.841" transform="translate(1758.723 135.646)" fill="#002131"/>
    <circle id="Ellipse_16" data-name="Ellipse 16" cx="2.841" cy="2.841" r="2.841" transform="translate(1678.253 34.329)" fill="#002131"/>
    <circle id="Ellipse_17" data-name="Ellipse 17" cx="2.841" cy="2.841" r="2.841" transform="translate(1841.491 189.992)" fill="#002131"/>
    <circle id="Ellipse_18" data-name="Ellipse 18" cx="2.841" cy="2.841" r="2.841" transform="translate(1911.051 118.784)" fill="#002131"/>
    <circle id="Ellipse_19" data-name="Ellipse 19" cx="2.841" cy="2.841" r="2.841" transform="translate(1854.213 0)" fill="#002131"/>
    <circle id="Ellipse_20" data-name="Ellipse 20" cx="2.841" cy="2.841" r="2.841" transform="translate(1863.077 43.429)" fill="#002131"/>
    <circle id="Ellipse_21" data-name="Ellipse 21" cx="2.841" cy="2.841" r="2.841" transform="translate(1851.007 125.482)" fill="#002131"/>
    <circle id="Ellipse_22" data-name="Ellipse 22" cx="2.841" cy="2.841" r="2.841" transform="translate(1821.724 129.225)" fill="#002131"/>
  </g>
</svg>
