<?xml version="1.0" encoding="UTF-8"?><svg id="uuid-e5483e3c-8cb1-489c-b468-eaf06b328556" xmlns="http://www.w3.org/2000/svg" viewBox="0 0 340.89 373.15"><polygon points="71.85 36.18 36.18 336.97 197.91 295.99 135.54 141.55 279.16 196.39 304.71 44.04 135.54 141.55 71.85 36.18" style="fill:none; stroke:#002131; stroke-miterlimit:10;"/><circle cx="71.85" cy="36.18" r="35.68" style="fill:#f2f2f2; stroke:#002131; stroke-miterlimit:10;"/><circle cx="135.54" cy="141.55" r="35.68" style="fill:#f2f2f2; stroke:#002131; stroke-miterlimit:10;"/><circle cx="304.71" cy="44.04" r="35.68" style="fill:#f2f2f2; stroke:#002131; stroke-miterlimit:10;"/><circle cx="36.18" cy="336.97" r="35.68" style="fill:#f2f2f2; stroke:#002131; stroke-miterlimit:10;"/><circle cx="197.91" cy="295.99" r="35.68" style="fill:#f2f2f2; stroke:#002131; stroke-miterlimit:10;"/><circle cx="279.16" cy="196.39" r="35.68" style="fill:#f2f2f2; stroke:#002131; stroke-miterlimit:10;"/><polygon points="64.42 56.75 43.93 35.99 64.65 15.55 69.46 20.43 66.72 23.11 64.65 20.97 49.36 36.04 64.42 51.33 66.4 49.4 69.08 52.15 64.42 56.75 64.42 56.75" style="fill:#002131; stroke-width:0px;"/><polygon points="79.49 44.04 76.8 41.29 81.9 36.26 76.64 30.89 79.33 28.2 87.33 36.31 79.49 44.04 79.49 44.04" style="fill:#ff9500; stroke-width:0px;"/><path d="M64.15,35.87l15.06,15.29,15.23-15.06-15.06-15.29-15.23,15.06h0ZM79.16,56.53l-20.43-20.72,15.56-15.34h0l5.15-5.09,20.43,20.76-20.72,20.38h.01Z" style="fill:#002131; stroke-width:0px;"/><polygon points="128.11 162.12 107.62 141.36 128.34 120.93 133.15 125.8 130.41 128.49 128.34 126.34 113.05 141.42 128.11 156.7 130.08 154.78 132.76 157.53 128.11 162.12 128.11 162.12" style="fill:#002131; stroke-width:0px;"/><polygon points="143.17 149.42 140.49 146.67 145.58 141.63 140.32 136.27 143.02 133.58 151.01 141.69 143.17 149.42 143.17 149.42" style="fill:#ff9500; stroke-width:0px;"/><path d="M127.84,141.25l15.06,15.29,15.23-15.06-15.06-15.29-15.23,15.06h0ZM142.85,161.91l-20.43-20.72,15.56-15.34h0l5.15-5.09,20.43,20.76-20.72,20.38h.01Z" style="fill:#002131; stroke-width:0px;"/><polygon points="297.28 64.61 276.79 43.85 297.51 23.41 302.32 28.29 299.58 30.97 297.51 28.83 282.22 43.91 297.28 59.19 299.26 57.27 301.94 60.01 297.28 64.61 297.28 64.61" style="fill:#002131; stroke-width:0px;"/><polygon points="312.35 51.9 309.66 49.15 314.76 44.12 309.5 38.76 312.19 36.06 320.19 44.18 312.35 51.9 312.35 51.9" style="fill:#ff9500; stroke-width:0px;"/><path d="M297.01,43.74l15.06,15.29,15.23-15.06-15.06-15.29-15.23,15.06h0ZM312.02,64.4l-20.43-20.72,15.56-15.34h0l5.15-5.09,20.43,20.76-20.72,20.38h.01Z" style="fill:#002131; stroke-width:0px;"/><polygon points="28.75 357.54 8.26 336.78 28.97 316.35 33.78 321.22 31.05 323.91 28.97 321.77 13.69 336.84 28.75 352.12 30.72 350.2 33.4 352.95 28.75 357.54 28.75 357.54" style="fill:#002131; stroke-width:0px;"/><polygon points="43.81 344.84 41.13 342.09 46.22 337.05 40.96 331.69 43.65 329 51.65 337.11 43.81 344.84 43.81 344.84" style="fill:#ff9500; stroke-width:0px;"/><path d="M28.48,336.67l15.06,15.29,15.23-15.06-15.06-15.29-15.23,15.06h0ZM43.48,357.33l-20.43-20.72,15.56-15.34h0l5.15-5.09,20.43,20.76-20.72,20.38h.01Z" style="fill:#002131; stroke-width:0px;"/><polygon points="190.48 316.56 169.99 295.8 190.7 275.36 195.51 280.24 192.78 282.92 190.7 280.78 175.42 295.86 190.48 311.14 192.45 309.22 195.13 311.96 190.48 316.56 190.48 316.56" style="fill:#002131; stroke-width:0px;"/><polygon points="205.54 303.85 202.86 301.11 207.95 296.07 202.69 290.71 205.38 288.02 213.38 296.13 205.54 303.85 205.54 303.85" style="fill:#ff9500; stroke-width:0px;"/><path d="M190.21,295.69l15.06,15.29,15.23-15.06-15.06-15.29-15.23,15.06h0ZM205.21,316.35l-20.43-20.72,15.56-15.34h0l5.15-5.09,20.43,20.76-20.72,20.38h.01Z" style="fill:#002131; stroke-width:0px;"/><polygon points="271.73 216.96 251.24 196.2 271.96 175.77 276.77 180.65 274.03 183.33 271.96 181.19 256.67 196.26 271.73 211.55 273.7 209.62 276.39 212.37 271.73 216.96 271.73 216.96" style="fill:#002131; stroke-width:0px;"/><polygon points="286.79 204.26 284.11 201.51 289.2 196.47 283.94 191.11 286.64 188.42 294.63 196.53 286.79 204.26 286.79 204.26" style="fill:#ff9500; stroke-width:0px;"/><path d="M271.46,196.09l15.06,15.29,15.23-15.06-15.06-15.29-15.23,15.06h0ZM286.47,216.75l-20.43-20.72,15.56-15.34h0l5.15-5.09,20.43,20.76-20.72,20.38h.01Z" style="fill:#002131; stroke-width:0px;"/></svg>