<?xml version="1.0" encoding="UTF-8"?><svg id="uuid-d03ed23c-3e64-4845-ba82-e611a4309457" xmlns="http://www.w3.org/2000/svg" viewBox="0 0 509.98 143.32"><path d="M279.7,79.02c-6.42,5.58-15.37,10.04-22.47,10.04-4.05,0-7.09-1.79-7.09-5.69,0-4.13,4.28-6.02,9.12-7.25l18.07-3.79,2.36-.69v7.38ZM349.89,47.7h-12.48l-17.44,16.78-17.44-16.78h-12.48l23.68,22.79-14.55,14.01h-.01c-3.04,2.67-4.84,3.89-6.76,3.89-2.7,0-3.72-2.01-3.72-5.13v-19.52c0-10.26-5.97-17.29-19.37-17.29-9.57,0-20.66,2.9-27.98,9.26l4.62,7.58c6.08-5.35,12.95-8.48,20.49-8.48,8.33,0,13.23,3.01,13.23,8.59v.78l-22.47,5.02c-10.92,2.68-16.89,7.36-16.89,14.94,0,8.25,6.31,12.71,15.65,12.71,7.88,0,19.08-6.05,24.15-10.07l.23,2.37c1.35,4.57,7.4,7.7,12.13,7.7s8.06-1.78,12.68-6.24l14.8-14.13,19.82,19.08h12.47l-26.06-25.09,23.68-22.79Z" style="fill:#000; stroke-width:0px;"/><path d="M373.02,88.39c-10.25,0-17.12-7.14-17.12-16.73s6.87-16.73,17.12-16.73,17.23,7.14,17.23,16.73-6.98,16.73-17.23,16.73M373.02,46.46c-15.31,0-26.91,10.93-26.91,25.2s11.6,25.2,26.91,25.2,26.91-10.93,26.91-25.2-11.48-25.2-26.91-25.2" style="fill:#000; stroke-width:0px;"/><path d="M432.88,46.46c-6.64,0-12.39,3.35-16.1,7.81l-2.36,2.81v-9.06h-9.46v47.29h9.46v-26.99c4.05-6.8,9.8-13.27,17.23-13.27,8.11,0,10.81,5.35,10.81,12.71v27.55h9.46v-29.44c0-12.6-7.66-19.4-19.03-19.4" style="fill:#000; stroke-width:0px;"/><path d="M466.63,65.86c2.36-7.03,9.12-11.04,16.78-11.04s13.17,4.46,15.43,10.15l.67,2.23h-33.26l.38-1.34ZM484.42,88.39c-10.25,0-16.33-5.58-18.24-12.27l-.17-1.56h43.97c0-14.27-8.67-28.1-26.57-28.1-15.43,0-26.8,10.93-26.8,25.2s11.37,25.2,27.81,25.2c8.33,0,16.33-3.12,23.76-9.37l-4.73-6.24c-5.86,4.68-11.94,7.14-19.03,7.14" style="fill:#000; stroke-width:0px;"/><polygon points="13.03 71.66 65.15 19.54 71.66 13.03 97.72 39.09 104.23 45.6 130.29 71.66 123.78 78.18 110.75 91.2 117.26 97.72 136.81 78.18 143.32 71.66 110.75 39.09 104.23 32.57 84.69 13.03 78.18 6.51 71.66 0 6.52 65.15 0 71.66 65.15 136.81 71.66 143.32 97.72 117.26 91.2 110.75 71.66 130.29 13.03 71.66" style="fill:#007aff; stroke-width:0px;"/><polygon points="110.75 26.06 117.26 32.57 136.81 13.03 195.44 71.66 143.32 123.78 136.81 130.29 110.75 104.23 104.23 97.72 78.18 71.66 84.69 65.15 97.72 52.12 91.2 45.6 71.66 65.15 65.15 71.66 97.72 104.23 104.23 110.75 123.78 130.29 130.29 136.81 136.81 143.32 201.95 78.18 208.47 71.66 143.32 6.51 136.81 0 110.75 26.06" style="fill:#ff6100; stroke-width:0px;"/></svg>