<?xml version="1.0" encoding="UTF-8"?><svg id="uuid-89da05f8-95aa-4697-b781-7814fcecbbad" xmlns="http://www.w3.org/2000/svg" viewBox="0 0 450 217.49"><path d="M437.97,217.49H12.03C5.4,217.49,0,212.09,0,205.46V12.03C0,5.4,5.4,0,12.03,0h425.94c6.63,0,12.03,5.4,12.03,12.03v193.43c0,6.63-5.4,12.03-12.03,12.03ZM12.03,4.71c-4.03,0-7.31,3.28-7.31,7.31v193.43c0,4.03,3.28,7.32,7.32,7.32h425.94c4.03,0,7.32-3.28,7.32-7.32V12.03c0-4.03-3.28-7.31-7.31-7.31H12.03Z" style="fill:#002131; stroke-width:0px;"/><text transform="translate(177.24 61.78)" style="fill:#eace97; font-family:BebasNeueBold, &apos;Bebas Neue&apos;; font-size:34.88px; letter-spacing:.06em;"><tspan x="0" y="0">WE ARE</tspan></text><text transform="translate(178.42 60.16)" style="fill:#002131; font-family:BebasNeueBold, &apos;Bebas Neue&apos;; font-size:34.88px; letter-spacing:.06em;"><tspan x="0" y="0">WE ARE</tspan></text><text transform="translate(18.51 171.65)" style="fill:#eace97; font-family:Montserrat-Bold, Montserrat; font-size:134.79px; font-weight:700;"><tspan x="0" y="0" style="letter-spacing:-.02em;">O</tspan><tspan x="111.06" y="0" style="letter-spacing:-.03em;">P</tspan><tspan x="205.68" y="0" style="letter-spacing:-.02em;">EN</tspan></text><text transform="translate(25.18 164.97)" style="fill:#002131; font-family:Montserrat-Bold, Montserrat; font-size:134.79px; font-weight:700;"><tspan x="0" y="0" style="letter-spacing:-.02em;">O</tspan><tspan x="111.06" y="0" style="letter-spacing:-.03em;">P</tspan><tspan x="205.68" y="0" style="letter-spacing:-.02em;">EN</tspan></text></svg>